<?xml version="1.0" standalone="yes"?>
<svg xmlns="http://www.w3.org/2000/svg" width="682" height="819">
<path style="fill:#fcf3fb; stroke:none;" d="M0 0L0 819L682 819L682 0L0 0z"/>
<path style="fill:#e496df; stroke:none;" d="M175 24L160 32L163 35L163 36L156 34L152 37L153 40L150 39C137.798 56.5975 127.528 74.1306 121.745 95C119.998 101.308 120.634 107.726 119 114L126 112L126 113L124 114L126 116L124 121L120 115L115 117L115 118C136.062 127.076 150.25 148.195 160.248 168C179.599 206.333 191.177 249.018 193 292C188.537 287.295 188.738 280.126 187.715 274C185.996 263.706 184.038 253.156 181.658 242.997C174.162 210.996 162.597 176.742 143.152 150C135.318 139.226 126.555 127.488 114 122C116.204 129.188 110.021 142.206 108.754 150C105.695 168.82 105.627 187.969 106.025 207C106.963 251.917 122.581 292.285 134 335C125.675 332.409 120.398 335.736 123 345C118.13 347.949 117.58 353.675 113.61 357.53C111.206 359.865 106.862 361.163 106.582 365.04C106.07 372.106 115.632 376.012 110 383L110 384L114 384L103 392L102 398L98 396C94.5204 402.452 85.4601 405.222 79 408L79 409L82 411L76 411L76 412L82 413L82 414C67.0687 420.527 79.3094 445.586 64 448L64 449L66 451C50.4444 452.432 66.1758 471.464 63 481L82 487L92.7716 478.941L104 463C105.028 469.643 108.011 472.451 104 479L104 480C104.579 485.751 96.7503 492.304 92 495C95.3281 508.812 88.3836 523.538 87.3974 537.911C86.8929 545.262 85.1977 551.564 93 556L91 562C94.2998 565.231 94.8403 569.25 92 573C92.9278 578.895 92.2225 586.574 88 591L95.25 612L94.1944 625.917L95 635L100 636L104 656L119 657L119 652L120 655L128 657L122 662L124 670L127 668L128 681L127 684C132.909 687.444 134.978 690.298 134 697C143.406 700.769 146.867 712.007 152 720L155 718L168 725L170 720L168 712L169 712L169 719L175 719C171.52 721.319 164.14 729.194 170.317 732.93C172.69 734.365 176.364 732.947 179 733L185 726L185 733C194.095 737.152 198.061 746.755 206.039 752.49C217.429 760.677 236.479 752.667 238 773L256 776.891L269 774L280 768L312 775L315 772L318 776L316 764L328 763C328.127 766.902 328.599 768.915 332 771L331 774L332 775C338.705 773.214 349.882 773.238 352 781C356.749 781.181 362.469 784.074 367 783.299C373.342 782.214 378.446 775.856 385.17 774.884C396.439 773.256 410.687 773.007 422 769.836C439.354 764.972 458.174 752.02 473 742L472 739L487 728C494.017 729.29 498.051 723.709 504 721L504 720L502 718C510.42 714.46 515.871 705.416 519 697L522 699L531.778 683L535.278 665L546 651L552 633L556.101 616L545.347 585.424L548 568L551 570L552 570L557 559L567 560L566 554L569 555L573 550L581 549L581 544C588.086 541.472 586.116 534.387 589.885 530.019C593.012 526.396 599.735 526.15 600.083 519.99C600.449 513.511 584.561 509.017 596 502L594 500L596 497L593 496L594 488L598 482C593.057 479.771 589.781 477.257 588 472L592 472L590 448L591 443C571.302 446.472 577.822 419.848 590 415C589.417 407.499 576.508 399.188 570 396C576.967 385.571 560.963 384.513 561 375L557 379L554 378C556.711 373.073 561.386 355.427 551 357L552 351L548 355L537 352L531 353L540 345L536 335L541 334L542 327L524.925 325.821L516 319C524.6 306.585 497.211 302.15 500.674 290.985C505.34 275.94 513.748 261.948 518.922 247C530.728 212.891 537.626 175.933 540.089 140C541.266 122.831 542.152 101.423 536 85C521.74 90.6494 508.882 106.687 498.809 117.816C470.676 148.897 446.263 185.696 436.503 227C433.536 239.556 430.366 254.089 431.439 267C431.954 273.195 436.332 282.967 432 288C411.223 207.732 472.858 123.653 536 81L536 80L530 82L531 79L525 81L526 78L521 79L523 76L520 77L519 77L519 72L521 73C520.44 58.1152 525.38 41.7568 506 36L505 40L496 37L496 32L492 32C491.116 24.9633 473.582 28.8367 469 30.6064C449.594 38.1011 433.665 55.3653 423.412 73C399.289 114.49 394 166.953 394 214C394 227.484 391.918 242.773 394 256C390.009 256.641 388.868 257.951 389 262L383 258L384 254L379 253L378 256L377 256L376 246L364 244C360.22 250.831 351.085 263.626 343 256L322 251L318 252C315.94 258.555 302.267 262.887 296 264L289 272L288 272C284.961 267.258 279.848 270.088 276.013 267.089C273.1 264.81 272.539 260.873 268.981 259.038C265.948 257.474 262.244 258.589 260.578 254.902C255.347 243.327 259.026 224.563 257.83 212C254.696 179.067 249.487 147 241 115L240 115L239 118L235 117C234.022 119.158 233.812 119.501 232 118L231 118L229 119L230 122L224 121L223 120C225.743 113.172 236.766 109.845 237.548 102.826C238.34 95.7111 232.946 86.5572 230.635 80C222.888 58.0155 206.217 12.8501 175 24z"/>
<path style="fill:#fcf3fb; stroke:none;" d="M180.667 23.3333L181.333 23.6667L180.667 23.3333M163 32L164 33L163 32M507 37L508 38L507 37M516 45L517 46L516 45z"/>
<path style="fill:#e496df; stroke:none;" d="M523 62L523 64L525 64L525 62L523 62z"/>
<path style="fill:#fcf3fb; stroke:none;" d="M523.333 81.6667L523.667 82.3333L523.333 81.6667M527 81L527 84L528 84L527 81z"/>
<path style="fill:#b16e9e; stroke:none;" d="M432 288C437.133 284.24 431.757 270.208 432 264L430 266L429 266L429 252L430 252L430 263L431 263C433.511 231.19 444.457 204.747 457 176C451.114 179.319 449.05 188.057 446.424 194C438.189 212.644 434.663 231.27 431 251L430 251C428.798 239.727 432.689 227.745 435.573 217C444.067 185.362 461.456 153.159 483.961 129.282C491.478 121.307 498.327 110.448 508 105L481.635 135.464L463 160L457 175L458 175C473.506 150.666 489.036 127.986 509.424 107.286C516.304 100.301 534.336 90.8877 536 81C519.904 88.3289 505.923 103.336 493.619 115.625C453.11 156.082 411.942 228.865 432 288z"/>
<path style="fill:#fcf3fb; stroke:none;" d="M529 82L530 83L529 82z"/>
<path style="fill:#9e4d63; stroke:none;" d="M527 87L525 91L526 91L527 87M529 87L530 88L529 87M521 92L521 95L523 92L521 92M519 94L517 97L519 94M515 98L508 105L515 98z"/>
<path style="fill:#fcf3fb; stroke:none;" d="M236 103L237 104L236 103z"/>
<path style="fill:#9e4d63; stroke:none;" d="M430 251L431 251C435.919 230.34 439.376 210.763 448.221 191C452.22 182.063 463.424 169.742 463 160L481.635 136.3L508 105C497.775 108.774 490.476 121.607 483.117 129.282C461.027 152.318 445.304 183.708 436.117 214C432.77 225.036 427.741 239.427 430 251z"/>
<path style="fill:#e496df; stroke:none;" d="M118 111L119 112L118 111z"/>
<path style="fill:#b16e9e; stroke:none;" d="M115 118L115 119L119 122C129.848 123.713 135.752 136.068 144 142C138.638 131.615 126.24 121.306 115 118z"/>
<path style="fill:#e496df; stroke:none;" d="M114 119L115 120L114 119z"/>
<path style="fill:#9e4d63; stroke:none;" d="M115 119C117.343 125.999 127.608 130.571 132.54 136.075C143.328 148.113 151.811 161.747 159.318 176C169.621 195.563 176.229 217.737 182.138 239C184.479 247.422 183.26 258.989 189 266C189.512 256.637 185.898 245.95 183.491 237C179.823 223.36 177.306 210.243 172.03 197C169.404 190.408 168.623 178.704 161 176C161.837 170.255 158.37 164.887 155.573 160C148.647 147.9 134.524 123.104 119 122L115 119z"/>
<path style="fill:#b16e9e; stroke:none;" d="M114.333 120.667L114.667 121.333L114.333 120.667M115.667 122.333L116.333 122.667L115.667 122.333M117.667 123.333L118.333 123.667L117.667 123.333M119 124L120 125L119 124M121 126L122 127L121 126M123 127L124 128L123 127M124 128L125 129L124 128M125 129L127 131L127 129L125 129M127 131L128 132L127 131M128 132L129 133L128 132M129.667 133.333L130.333 133.667L129.667 133.333M131 134L132 135L131 134M132.333 135.667L132.667 136.333L132.333 135.667M133 137L134 138L133 137M134 138L135 139L134 138M135.333 139.667L135.667 140.333L135.333 139.667M136.667 141.333L137.333 141.667L136.667 141.333M138.333 142.667L138.667 143.333L138.333 142.667M144 143L145 144L144 143M139 144L140 145L139 144M145 144L146 145L145 144M140.333 145.667L140.667 146.333L140.333 145.667M146 145L147 146L146 145M147.333 146.667L147.667 147.333L147.333 146.667M141 147L142 148L141 147M142.333 148.667L142.667 149.333L142.333 148.667M148 148L149 149L148 148M149.333 149.667L149.667 150.333L149.333 149.667M143 150L144 151L143 150M144 151L145 152L144 151M150 151L151 152L150 151M145.333 152.667L145.667 153.333L145.333 152.667M151.333 152.667L151.667 153.333L151.333 152.667M146 154L147 155L146 154M152 154L153 155L152 154M147 155L148 156L147 155M153.333 155.667L153.667 156.333L153.333 155.667M148.333 156.667L148.667 157.333L148.333 156.667M154.333 157.667L154.667 158.333L154.333 157.667M149 158L150 159L149 158M150.333 159.667L150.667 160.333L150.333 159.667M155 159L156 160L155 159M156.333 160.667L156.667 161.333L156.333 160.667M151 161L152 162L151 161M157.333 162.667L157.667 163.333L157.333 162.667M152 163L153 164L152 163M158.333 164.667L158.667 165.333L158.333 164.667M153.333 165.667L153.667 166.333L153.333 165.667M159.333 166.667L159.667 167.333L159.333 166.667M154 167L155 168L154 167M155.333 168.667L155.667 169.333L155.333 168.667M160.333 168.667L160.667 169.333L160.333 168.667M156 170L166 197L167 197C166.9 188.038 161.447 177.019 156 170M161 170L161 176L167 181L161 170M167 181L167 184L168 184L167 181M168 185L169 186L168 185M169 186L177 211L178 211L169 186M167 197L169 200L167 197M169 200L173 214L174 214L169 200M178 211L180 222L181 222L178 211M174 214L178 231L179 231L174 214M181 222L185 242L186 242L181 222M179 231L183 254L184 254C184.759 247.059 183.407 236.573 179 231M186 242L187 253L188 253L186 242z"/>
<path style="fill:#9e4d63; stroke:none;" d="M429 252L429 266L430 266L429 252z"/>
<path style="fill:#b16e9e; stroke:none;" d="M188 253L189 264L190 264L188 253M184 254C184.375 262.213 186.209 287.261 193 292L191 264L188 266L184 254z"/>
<path style="fill:#fcf3fb; stroke:none;" d="M317 256L318 257L317 256M260 258L261 259L260 258z"/>
<path style="fill:#9e4d63; stroke:none;" d="M188 267L189 274L190 274L188 267M429 268L430 269L429 268M431 280L432 281L431 280M190 283L191 284L190 283z"/>
<path style="fill:#b16e9e; stroke:none;" d="M434 288L437 295L434 288M190 294L192 297L193 296L192 294L190 294z"/>
<path style="fill:#e496df; stroke:none;" d="M536.667 349.333L537.333 349.667L536.667 349.333z"/>
<path style="fill:#fcf3fb; stroke:none;" d="M552.333 360.667L552.667 361.333L552.333 360.667M108 364L108 366L110 366L110 364L108 364z"/>
<path style="fill:#e496df; stroke:none;" d="M96.3333 395.667L96.6667 396.333L96.3333 395.667z"/>
<path style="fill:#fcf3fb; stroke:none;" d="M98 399L99 400L98 399M106 459L108 465L112 464L112 462L106 459M552 464L552 467L562 466L552 464M111 471L112 472L111 471M103 487L104 488L103 487z"/>
<path style="fill:#e496df; stroke:none;" d="M598 504L599 509L600 509L600 504L598 504z"/>
<path style="fill:#b16e9e; stroke:none;" d="M202 532L218 513C231.141 511.699 237.132 503.611 250 513C246.877 505.033 241.427 505.609 234 505.961C219.487 506.65 208.091 519.726 202 532z"/>
<path style="fill:#9e4d63; stroke:none;" d="M218 513C210.713 521.99 202.234 528.243 203.09 541.001C204.854 567.281 235.468 573.286 252.302 555.275C261.3 545.649 264.814 534.547 260.411 522.005C257.761 514.456 242.486 504.603 235 509C242.755 510.399 253.01 513.781 257.606 521.058C270.936 542.167 243.502 566.456 223 563.867C210.263 562.259 201.833 546.917 204.53 535C207.151 523.42 221.981 510.331 234 510C228.899 504.946 223.744 511.821 218 513z"/>
<path style="fill:#2f262c; stroke:none;" d="M231 509.851C220.051 512.484 207.157 522.615 204.529 534C200.211 552.713 216.599 568.343 234.985 563.387C245.7 560.499 258.322 550.319 260.694 539C264.269 521.935 247.847 505.801 231 509.851z"/>
<path style="fill:#b16e9e; stroke:none;" d="M435 511C430.125 519.055 419 517.351 416.14 529C409.761 554.979 444.016 575.935 466 569L474.181 556.985L476 544C472.706 546.835 473.699 551.853 472.111 555.714C470.302 560.114 464.208 566.812 459.961 568.976C442.937 577.652 415.313 547.735 417.225 532C418.506 521.453 429.51 517.576 438 514.299C445.073 511.568 449.412 512.573 455.961 516.084C461.866 519.251 465.936 524.789 470 530C469.497 513.125 446.929 510.909 435 511z"/>
<path style="fill:#9e4d63; stroke:none;" d="M472 533L471 533C473.107 540.109 473.874 549.369 470.009 556C467.487 560.328 462.622 563.362 461 568C445.617 567.032 431.913 561.882 423.413 547.896C419.021 540.669 415.158 527.252 426 524L425 521C430.824 520.205 435.146 515.644 441 514.568C453.434 512.282 463.351 523.053 470 532C470.365 527.652 465.494 523.365 462.626 520.336C451.079 508.145 419.945 511.735 417.211 531.001C414.605 549.359 440.145 574.464 458.985 569.682C472.95 566.138 477.425 544.258 472 533z"/>
<path style="fill:#b16e9e; stroke:none;" d="M251.667 513.333L252.333 513.667L251.667 513.333M253 514L257 516L253 514z"/>
<path style="fill:#2f262c; stroke:none;" d="M425 521L426 524C414.253 525.94 419.049 541.975 423.413 548.791C432.193 562.506 445.441 567.593 461 568C464.337 562.211 470.167 558.949 472.072 552C476.866 534.506 462.336 514.444 444 514.174C436.602 514.065 431.746 519.411 425 521z"/>
<path style="fill:#b16e9e; stroke:none;" d="M257 516C262.672 529.072 262.144 534.99 258 548C267.389 543.075 265.675 520.809 257 516z"/>
<path style="fill:#fcf3fb; stroke:none;" d="M599 520L600 521L599 520z"/>
<path style="fill:#b16e9e; stroke:none;" d="M471 531L476 543L471 531M203 533L204 534L203 533M202 534L203 549L204 549L202 534M255 551L258 548L255 551M204 549L204 553L205 553L204 549M254 551L253 556L254 551M205 553L206 554L205 553M206.333 554.667L206.667 555.333L206.333 554.667M207 556L212 560L212 559L207 556M240 564L243 565L243 562L251 560L253 557C248.729 556.089 242.844 560.94 240 564M212 560L215 563L212 560M215 563L215 564C221.824 568.572 233.416 570.018 240 564L225.884 566.177L215 563M337 616C337 631.433 340.689 647.998 320 648L320 649C338.992 654.222 341.422 631.106 337.682 618.133C336.661 614.591 332.408 613.979 329.576 612.33C320.501 607.046 311.723 597.533 322.105 588.681C323.87 587.176 325.874 585.895 328 584.966C337.494 580.818 351.119 582.369 356.693 592.093C362.359 601.979 350.6 614.276 341 615C341.013 635.003 346.979 649.818 369 650L369 649C348.707 648.581 342.384 634.594 342 616C364.555 615.268 366.449 582.74 343 581.471C333.264 580.944 319.935 583.883 315.859 594.004C311.388 605.102 328.23 614.789 337 616z"/>
<path style="fill:#9e4d63; stroke:none;" d="M340 641L341 641C347.663 653.173 364.903 657.706 377 651L377 650C371.058 647.101 363.728 650.387 357 648.457C343.197 644.497 341.034 627.168 341 615C358.74 614.424 366.06 588.097 346 583.314C336.604 581.073 312.493 585.616 316.862 600C319.797 609.663 329.102 610.387 335.686 615.853C339.336 618.884 340.094 636.706 338.011 640.826C332.051 652.615 318.048 650.798 310.17 643.055C309.116 642.019 304.686 637.541 303.878 641.337C302.866 646.095 310.505 650.721 314 652.211C323.63 656.314 338.697 652.703 340 641z"/>
<path style="fill:#b16e9e; stroke:none;" d="M302 643L303 643L307 639C303.535 637.313 302.523 639.734 302 643M307 639L308 640L307 639M308.333 640.667L308.667 641.333L308.333 640.667M340 641L340 645L345 647L340 641M309 642L310 643L309 642M303 643L304 644L303 643M310 643L311 644L310 643M304.333 644.667L304.667 645.333L304.333 644.667M311 644L312 645L311 644M312 645L313 646L312 645M339.333 645.667L339.667 646.333L339.333 645.667M305 646L306 647L305 646M313 646L314 647L313 646M306 647L306 649L308 649L306 647M314 647L314 648L319 649L319 648L314 647M338 647L339 648L338 647M345 647L348 650L345 647M373 647L373 648L377 650L377 651L370 653L370 654C375.619 653.817 381.022 648.752 373 647M337 648L320 654L320 655C324.681 654.903 337.149 654.393 337 648M370.667 648.333L371.333 648.667L370.667 648.333M308 649L312 652L308 649M348.667 650.333L349.333 650.667L348.667 650.333z"/>
<path style="fill:#fcf3fb; stroke:none;" d="M114 651L115 656L116 651L114 651z"/>
<path style="fill:#b16e9e; stroke:none;" d="M350 651L350 652L359 654L359 653L350 651M312 652L312 653L318 654L318 653L312 652z"/>
<path style="fill:#fcf3fb; stroke:none;" d="M107 654L107 655L111 655L107 654z"/>
<path style="fill:#b16e9e; stroke:none;" d="M360 653L361 654L360 653M318 654L319 655L318 654M361 654L361 655L370 655L361 654z"/>
<path style="fill:#fcf3fb; stroke:none;" d="M127 655L128 656L127 655z"/>
<path style="fill:#e496df; stroke:none;" d="M203 754L204 755L203 754z"/>
<path style="fill:#fcf3fb; stroke:none;" d="M287 767L286 769L287 767M240 772L243 770L240 772z"/>
<path style="fill:#e496df; stroke:none;" d="M276 771L276 772L280 772L276 771M307 774L308 775L307 774M311 779L310 781L312 781L311 779z"/>
</svg>
